<svg xmlns="http://www.w3.org/2000/svg" width="256" height="256" viewBox="0 0 44 44" role="img" aria-label="AMMF">
  <title>AMMF</title>
  <rect x="0.5" y="0.5" width="43" height="43" rx="10" fill="#F4F7FF" stroke="#DCE3FF" stroke-width="1"/>
  <rect x="4" y="4" width="17" height="17" rx="5" fill="#00D4FF"/>
  <rect x="23" y="4" width="17" height="17" rx="5" fill="#1A56FF"/>
  <rect x="4" y="23" width="17" height="17" rx="5" fill="#0D1F5C"/>
  <rect x="23" y="23" width="17" height="17" rx="5" fill="#4D7BFF"/>
  <g fill="none" stroke-width="1.5" stroke-linecap="round" stroke-linejoin="round">
    <path transform="translate(7.8,7.8)" stroke="#FFFFFF" d="M3.3 0 C1.2 0.1 0 1.7 0.1 3.4 C0.2 5.1 1.6 6.5 3.4 6.4 C5.2 6.3 6.5 4.8 6.3 3.1 C6.1 1.3 5.1 0.1 3.3 0 Z M5.6 5.6 L9.4 9.4 M1.5 2.5 C2.1 2 3 1.8 3.7 2.1"/>
    <path transform="translate(26,7.75)" stroke="#00D4FF" d="M0 7 C1.4 2 3.5 0 5 1.4 C6.4 2.8 5 7 7 5.6 C9 4.2 9.7 0 11 2.8 M0.7 9.5 C2.8 7 5.6 7.7 7.7 5.6"/>
    <path transform="translate(7.5,26.9)" stroke="#FFFFFF" d="M0 5.5 L3.5 9.2 L10 0"/>
    <path transform="translate(26,26.65)" stroke="#FFFFFF" d="M5.5 9.7 C1.5 6.2 0 4.2 0 2.4 C0 0.8 1.7 0 3.3 1.1 C4.2 1.7 5 2.7 5.5 3.6 C6 2.7 6.8 1.7 7.7 1.1 C9.3 0 11 0.8 11 2.4 C11 4.2 9.5 6.2 5.5 9.7 Z"/>
  </g>
</svg>
